<svg width="199" height="70" viewBox="0 0 199 70" fill="none" xmlns="http://www.w3.org/2000/svg">
<path d="M66.4282 14.2997C70.9158 14.2997 74.3538 15.099 76.7421 16.6975C79.1305 18.296 80.3242 20.7808 80.3234 24.1518C80.3234 26.2549 79.8414 27.9622 78.8773 29.2739C77.9133 30.5855 76.5252 31.616 74.7132 32.3654C75.3175 33.1148 75.9502 33.9722 76.6112 34.9376C77.2723 35.9029 77.9268 36.9112 78.5748 37.9623C79.2218 39.0134 79.8479 40.1083 80.453 41.2468C81.0582 42.3853 81.6192 43.5015 82.1362 44.5955H74.6033C74.055 43.6169 73.4993 42.6231 72.9362 41.614C72.373 40.605 71.7968 39.6256 71.2073 38.6758C70.6162 37.7253 70.0317 36.8246 69.4537 35.9738C68.8758 35.1231 68.2995 34.3526 67.7248 33.6626H64.4005V44.5955H57.6702V15.0775C59.1749 14.7847 60.6957 14.5824 62.2246 14.4716C63.7896 14.3562 65.1908 14.2989 66.4282 14.2997ZM66.816 20.0475C66.3269 20.0475 65.8885 20.0619 65.5008 20.0908C65.113 20.1196 64.7463 20.1481 64.4005 20.1761V28.3006H66.2985C68.8301 28.3006 70.6413 27.9841 71.7321 27.3509C72.823 26.7178 73.3696 25.637 73.3721 24.1085C73.3721 22.6402 72.8184 21.5961 71.7111 20.9762C70.6038 20.3562 68.9721 20.0467 66.816 20.0475Z" fill="#F8F8F8"/>
<path d="M104.967 43.8152C103.577 44.1964 102.164 44.492 100.738 44.7006C98.9401 44.9805 97.1232 45.1182 95.3041 45.1124C93.3768 45.1124 91.7714 44.8527 90.4879 44.3333C89.2044 43.814 88.1902 43.0868 87.4451 42.152C86.6726 41.1669 86.1273 40.0229 85.8484 38.802C85.5192 37.4004 85.3596 35.9643 85.3729 34.5245V21.8616H91.8031V33.7467C91.8031 35.8201 92.0764 37.318 92.6231 38.2405C93.1697 39.1631 94.191 39.6239 95.6869 39.6231C96.1479 39.6231 96.6373 39.6016 97.1552 39.5588C97.6726 39.5155 98.1332 39.466 98.5358 39.4067V21.8616H104.967V43.8152Z" fill="#F8F8F8"/>
<path d="M132.111 33.2273C132.111 35.041 131.844 36.6832 131.312 38.1539C130.819 39.5578 130.032 40.8396 129.004 41.9133C127.957 42.9762 126.69 43.7953 125.291 44.3123C123.824 44.8737 122.156 45.1548 120.285 45.1557C119.51 45.1557 118.697 45.1194 117.847 45.0468C116.998 44.9743 116.162 44.8807 115.34 44.7661C114.517 44.6515 113.735 44.5147 112.994 44.3556C112.253 44.1965 111.592 44.0316 111.01 43.8609V12.096L117.44 11.0585V22.3809C118.162 22.0608 118.913 21.8122 119.684 21.639C120.506 21.4621 121.346 21.3754 122.187 21.3805C123.799 21.3805 125.223 21.6612 126.46 22.2226C127.67 22.7649 128.735 23.5871 129.567 24.6217C130.437 25.7316 131.083 27.0016 131.466 28.36C131.914 29.9428 132.131 31.5822 132.111 33.2273ZM125.549 33.0541C125.549 28.9049 124.026 26.8307 120.98 26.8315C120.317 26.8315 119.657 26.9188 119.017 27.0912C118.461 27.2249 117.929 27.4435 117.44 27.7392V39.4499C117.756 39.5085 118.159 39.5592 118.648 39.602C119.137 39.6449 119.669 39.6663 120.244 39.6663C121.999 39.6663 123.323 39.0616 124.216 37.8522C125.109 36.6428 125.554 35.0434 125.549 33.0541Z" fill="#F8F8F8"/>
<path d="M144.106 15.2926C144.106 16.4748 143.725 17.4039 142.963 18.0799C142.217 18.7352 141.259 19.0965 140.266 19.0965C139.274 19.0965 138.316 18.7352 137.57 18.0799C136.807 17.4039 136.426 16.4748 136.427 15.2926C136.427 14.1104 136.808 13.1813 137.569 12.5053C138.315 11.8508 139.273 11.49 140.265 11.49C141.257 11.49 142.215 11.8508 142.962 12.5053C143.725 13.1829 144.106 14.1121 144.106 15.2926ZM143.503 44.593H137.075V21.8615H143.505L143.503 44.593Z" fill="#F8F8F8"/>
<path d="M158.539 28.2338L163.052 21.8616H169.697L161.82 32.9157C163.541 34.8849 165.147 36.9523 166.63 39.1074C167.855 40.8712 168.98 42.7027 170 44.593H163.103C162.868 44.1602 162.58 43.6194 162.239 42.9706C161.897 42.3218 161.509 41.6445 161.075 40.9388C160.69 40.2937 160.237 39.6918 159.724 39.1433C159.255 38.6536 158.793 38.208 158.338 37.8065C157.903 38.1783 157.46 38.5905 157.01 39.0431C156.514 39.5532 156.082 40.1212 155.722 40.7348C155.319 41.41 154.921 42.0786 154.53 42.7406C154.139 43.4026 153.793 44.0209 153.492 44.5955H146.947C147.307 43.8865 147.784 43.0386 148.378 42.0518C148.972 41.065 149.622 40.0464 150.329 38.9961C151.043 37.9387 151.81 36.918 152.626 35.938C153.449 34.9487 154.258 34.0196 155.051 33.1506L150.976 27.3596C149.673 25.5071 148.385 23.6753 147.113 21.864H154.061L158.539 28.2338Z" fill="#F8F8F8"/>
<path d="M62.7185 57.3895V62.9456H61.1379C61.1379 62.5932 61.1379 62.2432 61.1477 61.8945C61.1576 61.5458 61.1626 61.2243 61.1687 60.9275C61.1749 60.6307 61.1848 60.3735 61.1947 60.1521C61.2045 59.9308 61.2107 59.7663 61.2107 59.6575C61.007 59.9456 60.8032 60.2387 60.5994 60.533C60.3957 60.8273 60.1993 61.1204 60.0141 61.3986C59.8289 61.6769 59.6523 61.9564 59.4868 62.2173C59.3213 62.4782 59.1756 62.7119 59.0496 62.9358H57.6702V57.3895H59.2386C59.2386 57.7424 59.2386 58.0787 59.2386 58.3986C59.2386 58.7189 59.2287 59.0095 59.2225 59.2704C59.2163 59.5313 59.2089 59.7576 59.2015 59.9506C59.1941 60.1435 59.1916 60.2943 59.1916 60.3995C59.6127 59.7811 60.0005 59.2234 60.3562 58.7313C60.7118 58.2391 61.0576 57.7914 61.3947 57.3895H62.7185Z" fill="#F8F8F8"/>
<path d="M68.9734 62.9456H67.4013V60.7482H65.7663V62.9456H64.1955V57.3895H65.7663V59.4596H67.4013V57.3895H68.9734V62.9456Z" fill="#F8F8F8"/>
<path d="M75.038 58.6781H73.2671V62.9456H71.6951V58.6781H69.923V57.3895H75.038V58.6781Z" fill="#F8F8F8"/>
<path d="M75.7234 60.2103C75.7133 59.7687 75.7892 59.3293 75.9469 58.9168C76.0827 58.572 76.2854 58.2576 76.5433 57.9918C76.7851 57.7486 77.0743 57.5579 77.393 57.4316C77.7073 57.3063 78.0426 57.2421 78.3809 57.2424C79.1688 57.2424 79.7908 57.4832 80.2468 57.9646C80.7029 58.4461 80.9318 59.1555 80.9335 60.0928C80.9335 60.1856 80.9335 60.2845 80.9223 60.3946C80.9112 60.5046 80.9088 60.6011 80.9013 60.6852H77.3374C77.3509 60.8393 77.3986 60.9884 77.477 61.1217C77.5554 61.255 77.6625 61.3691 77.7906 61.4556C78.0573 61.646 78.4159 61.7412 78.8662 61.7412C79.1509 61.7418 79.4349 61.7153 79.7146 61.6621C79.9483 61.6222 80.1769 61.5567 80.3963 61.4667L80.6062 62.7441C80.4974 62.7945 80.3846 62.8359 80.2691 62.8678C80.1147 62.913 79.9581 62.9502 79.7998 62.9791C79.6269 63.01 79.4429 63.0372 79.2466 63.057C79.0501 63.0788 78.8527 63.0895 78.655 63.0891C78.2107 63.0985 77.7686 63.0234 77.3522 62.8678C77.0055 62.7349 76.6922 62.5272 76.4347 62.2594C76.19 61.999 76.0065 61.6872 75.8975 61.3468C75.7788 60.9798 75.72 60.596 75.7234 60.2103ZM79.4145 59.6081C79.4082 59.4755 79.3854 59.3442 79.3466 59.2173C79.3083 59.094 79.2471 58.9791 79.1663 58.8785C79.0825 58.7761 78.9787 58.692 78.8613 58.6312C78.7182 58.5637 78.5612 58.531 78.4031 58.5359C78.2464 58.5316 78.0907 58.5625 77.9474 58.6262C77.8264 58.682 77.7187 58.7629 77.6313 58.8636C77.5451 58.9646 77.4793 59.0814 77.4374 59.2074C77.3915 59.3358 77.358 59.4683 77.3374 59.6031L79.4145 59.6081Z" fill="#F8F8F8"/>
<path d="M87.308 60.1669C87.3124 60.5637 87.2592 60.959 87.15 61.3405C87.0549 61.6701 86.8972 61.9783 86.6856 62.2481C86.4821 62.5019 86.222 62.7044 85.9262 62.8392C85.598 62.9855 85.2418 63.0577 84.8827 63.0507C84.6752 63.0524 84.4681 63.0313 84.2652 62.9876C84.077 62.9462 83.8933 62.8862 83.7169 62.8083V64.8994H82.1461V57.5799C82.2881 57.5379 82.4487 57.4971 82.6314 57.4563C82.8142 57.4155 83.0019 57.3833 83.2069 57.3561C83.4119 57.3289 83.6107 57.3042 83.8244 57.2869C84.038 57.2695 84.2306 57.2609 84.4196 57.2609C84.8366 57.2537 85.2515 57.3232 85.6434 57.4662C85.9847 57.5894 86.2941 57.7876 86.5489 58.0464C86.8036 58.3051 86.9972 58.6177 87.1154 58.9612C87.2493 59.3488 87.3145 59.7569 87.308 60.1669ZM85.7027 60.2102C85.7027 59.7246 85.594 59.3355 85.3766 59.0428C85.1593 58.7502 84.8358 58.6043 84.406 58.6051C84.2652 58.6051 84.1343 58.6051 84.0158 58.6199C83.8972 58.6348 83.7984 58.6422 83.7206 58.657V61.5012C83.8399 61.5733 83.9694 61.6266 84.1047 61.6595C84.2614 61.7013 84.4229 61.7225 84.5851 61.7226C85.3301 61.7209 85.7027 61.2168 85.7027 60.2102Z" fill="#F8F8F8"/>
<path d="M93.2949 62.9456H91.7228V60.7482H90.0878V62.9456H88.517V57.3895H90.0878V59.4596H91.7228V57.3895H93.2949V62.9456Z" fill="#F8F8F8"/>
<path d="M94.5076 60.2103C94.4983 59.7685 94.575 59.3292 94.7336 58.9168C94.8694 58.572 95.0721 58.2576 95.33 57.9918C95.5718 57.7486 95.861 57.5579 96.1796 57.4316C96.4939 57.3063 96.8292 57.2421 97.1676 57.2424C97.9554 57.2424 98.5774 57.4832 99.0335 57.9646C99.4896 58.4461 99.7185 59.1555 99.7201 60.0928C99.7201 60.1856 99.7201 60.2845 99.7102 60.3946C99.7004 60.5046 99.6954 60.6011 99.688 60.6852H96.1216C96.1351 60.8393 96.1828 60.9884 96.2612 61.1217C96.3396 61.255 96.4467 61.3691 96.5748 61.4556C96.8415 61.646 97.2001 61.7412 97.6504 61.7412C97.9351 61.7418 98.2191 61.7153 98.4988 61.6621C98.7325 61.6222 98.9611 61.5567 99.1805 61.4667L99.3904 62.7441C99.2816 62.7946 99.1688 62.8359 99.0533 62.8678C98.8989 62.913 98.7422 62.9502 98.584 62.9791C98.4111 63.01 98.2271 63.0372 98.0308 63.057C97.8329 63.0819 97.6337 63.0955 97.4343 63.0978C96.9899 63.1072 96.5479 63.0321 96.1315 62.8765C95.7847 62.7436 95.4714 62.5359 95.2139 62.268C94.9693 62.0077 94.7857 61.6959 94.6767 61.3554C94.5593 60.9853 94.5022 60.5986 94.5076 60.2103ZM98.1987 59.6081C98.1924 59.4755 98.1695 59.3442 98.1308 59.2173C98.0925 59.094 98.0313 58.9791 97.9505 58.8785C97.8666 58.7761 97.7629 58.692 97.6455 58.6312C97.5024 58.5637 97.3454 58.531 97.1873 58.5359C97.0306 58.5317 96.8749 58.5625 96.7316 58.6262C96.6108 58.6823 96.5031 58.7632 96.4155 58.8636C96.3293 58.9646 96.2635 59.0814 96.2216 59.2074C96.1763 59.336 96.1428 59.4684 96.1216 59.6031L98.1987 59.6081Z" fill="#F8F8F8"/>
<path d="M105.519 58.6781H103.747V62.9456H102.175V58.6781H100.398V57.3895H105.514L105.519 58.6781Z" fill="#F8F8F8"/>
<path d="M105.993 59.08H109.051V60.5008H105.993V59.08Z" fill="#F8F8F8"/>
<path d="M112.205 57.2423C112.598 57.2317 112.99 57.2851 113.366 57.4006C113.646 57.4893 113.9 57.6451 114.107 57.8544C114.296 58.0572 114.432 58.3042 114.502 58.5729C114.583 58.8795 114.622 59.1956 114.618 59.5127V62.786C114.393 62.8367 114.08 62.8936 113.68 62.9604C113.198 63.0336 112.711 63.0671 112.224 63.0606C111.896 63.0638 111.569 63.0323 111.248 62.9666C110.979 62.9128 110.722 62.807 110.493 62.655C110.284 62.513 110.117 62.318 110.008 62.0898C109.888 61.8209 109.831 61.5284 109.84 61.2341C109.831 60.9471 109.899 60.6629 110.035 60.4105C110.161 60.1893 110.341 60.0037 110.558 59.8713C110.789 59.733 111.042 59.6351 111.306 59.582C111.594 59.5209 111.887 59.4906 112.182 59.4917C112.363 59.4906 112.544 59.4993 112.725 59.5177C112.855 59.5305 112.983 59.5537 113.109 59.5869V59.4385C113.114 59.3199 113.095 59.2015 113.052 59.0907C113.01 58.9798 112.945 58.8789 112.862 58.7942C112.7 58.6322 112.42 58.5469 112.019 58.5469C111.754 58.5463 111.49 58.5657 111.228 58.605C110.998 58.6358 110.772 58.6905 110.553 58.7683L110.351 57.5007C110.444 57.4735 110.558 57.4426 110.695 57.4117C110.832 57.3808 110.981 57.3511 111.143 57.3264C111.305 57.3016 111.475 57.2819 111.654 57.2633C111.833 57.2448 112.022 57.2423 112.205 57.2423ZM112.329 61.8474C112.483 61.8474 112.63 61.8474 112.772 61.8363C112.884 61.832 112.996 61.8213 113.108 61.8042V60.6108C113.046 60.5972 112.951 60.5836 112.824 60.5688C112.708 60.5556 112.592 60.5486 112.475 60.5478C112.336 60.5472 112.197 60.5559 112.059 60.5737C111.94 60.5881 111.824 60.6224 111.716 60.6751C111.624 60.7191 111.545 60.787 111.488 60.8718C111.429 60.9666 111.4 61.0768 111.404 61.1883C111.404 61.4357 111.486 61.6063 111.651 61.7003C111.861 61.8075 112.096 61.8582 112.332 61.8474H112.329Z" fill="#F8F8F8"/>
<path d="M119.979 58.6781H117.616V62.9456H116.044V57.3895H119.979V58.6781Z" fill="#F8F8F8"/>
<path d="M120.559 60.2103C120.55 59.7685 120.627 59.3292 120.785 58.9168C120.921 58.572 121.124 58.2576 121.382 57.9918C121.623 57.7486 121.913 57.5579 122.231 57.4316C122.546 57.3063 122.881 57.2421 123.219 57.2424C124.007 57.2424 124.629 57.4832 125.085 57.9646C125.541 58.4461 125.77 59.1555 125.772 60.0928C125.772 60.1856 125.772 60.2845 125.762 60.3946C125.752 60.5046 125.747 60.6011 125.74 60.6852H122.173C122.187 60.8393 122.234 60.9884 122.313 61.1217C122.391 61.255 122.498 61.3691 122.626 61.4556C122.893 61.646 123.252 61.7412 123.702 61.7412C123.987 61.7418 124.271 61.7153 124.55 61.6621C124.784 61.6222 125.013 61.5567 125.232 61.4667L125.442 62.7441C125.333 62.7945 125.22 62.8359 125.105 62.8678C124.951 62.913 124.794 62.9502 124.636 62.9791C124.463 63.01 124.279 63.0372 124.082 63.057C123.886 63.0788 123.688 63.0895 123.491 63.0891C123.047 63.0985 122.604 63.0234 122.188 62.8678C121.841 62.7349 121.528 62.5272 121.271 62.2594C121.026 61.999 120.842 61.6872 120.733 61.3468C120.615 60.9797 120.556 60.596 120.559 60.2103ZM124.25 59.6081C124.244 59.4755 124.221 59.3442 124.182 59.2173C124.144 59.094 124.083 58.9791 124.002 58.8785C123.918 58.7761 123.814 58.692 123.697 58.6312C123.554 58.5637 123.397 58.531 123.239 58.5359C123.082 58.5316 122.927 58.5625 122.783 58.6262C122.662 58.6823 122.555 58.7632 122.467 58.8636C122.381 58.9646 122.315 59.0814 122.273 59.2074C122.228 59.336 122.194 59.4684 122.173 59.6031L124.25 59.6081Z" fill="#F8F8F8"/>
<path d="M131.765 62.9456H130.194V60.7482H128.554V62.9456H126.982V57.3895H128.554V59.4596H130.189V57.3895H131.765V62.9456Z" fill="#F8F8F8"/>
<path d="M137.824 58.6781H136.052V62.9456H134.482V58.6781H132.711V57.3895H137.826L137.824 58.6781Z" fill="#F8F8F8"/>
<path d="M138.51 60.1669C138.508 59.78 138.574 59.3957 138.705 59.0317C138.828 58.6851 139.021 58.3677 139.273 58.0996C139.524 57.8314 139.828 57.6183 140.166 57.4736C140.546 57.3135 140.956 57.2347 141.369 57.2423C141.641 57.2399 141.913 57.2665 142.18 57.3215C142.426 57.374 142.666 57.4497 142.897 57.5478L142.57 58.8042C142.412 58.7448 142.25 58.6957 142.085 58.657C141.891 58.613 141.693 58.5918 141.495 58.5939C141.03 58.5939 140.684 58.7386 140.455 59.0268C140.215 59.3567 140.094 59.759 140.114 60.1669C140.114 60.6673 140.221 61.0548 140.435 61.3293C140.649 61.6039 141.024 61.7411 141.558 61.7411C141.765 61.7403 141.971 61.7225 142.175 61.688C142.382 61.6565 142.584 61.6 142.776 61.5198L142.997 62.8083C142.776 62.8975 142.547 62.9646 142.312 63.0087C142.014 63.0674 141.71 63.0956 141.406 63.0927C140.959 63.1036 140.514 63.0267 140.097 62.8664C139.754 62.7306 139.446 62.5193 139.195 62.2481C138.957 61.9821 138.78 61.6667 138.678 61.3244C138.565 60.9491 138.508 60.559 138.51 60.1669Z" fill="#F8F8F8"/>
<path d="M148.635 58.6781H146.863V62.9456H145.292V58.6781H143.52V57.3895H148.635V58.6781Z" fill="#F8F8F8"/>
<path d="M151.989 63.0508C151.792 63.0508 151.581 63.0434 151.355 63.0298C151.129 63.0162 150.91 62.9964 150.691 62.9716C150.472 62.9469 150.267 62.9185 150.074 62.8863C149.88 62.8542 149.717 62.8257 149.58 62.7973V57.4737C149.714 57.4464 149.877 57.4192 150.074 57.3957C150.27 57.3723 150.472 57.3475 150.691 57.3265C150.91 57.3055 151.131 57.2894 151.355 57.2795C151.58 57.2696 151.792 57.2634 151.989 57.2634C152.378 57.255 152.767 57.3012 153.143 57.4007C153.416 57.4725 153.674 57.5941 153.903 57.7593C154.08 57.8875 154.223 58.0574 154.319 58.254C154.4 58.4252 154.442 58.6123 154.443 58.8018C154.445 59.0397 154.383 59.2737 154.264 59.4794C154.159 59.6682 154.001 59.8221 153.81 59.9222C153.917 59.9702 154.018 60.0309 154.11 60.1027C154.216 60.1824 154.31 60.2765 154.389 60.3822C154.479 60.5002 154.549 60.6322 154.596 60.7729C154.651 60.9416 154.678 61.1184 154.675 61.296C154.675 61.5207 154.63 61.7431 154.543 61.9502C154.446 62.1735 154.291 62.3669 154.094 62.5104C153.844 62.6913 153.561 62.8238 153.262 62.9012C152.846 63.0083 152.418 63.0586 151.989 63.0508ZM152.042 59.566C152.257 59.5737 152.472 59.5393 152.674 59.4646C152.836 59.3978 152.921 59.2531 152.921 59.0268C152.928 58.9346 152.905 58.8428 152.855 58.7648C152.805 58.6869 152.732 58.627 152.646 58.594C152.417 58.5082 152.173 58.4687 151.928 58.4778C151.831 58.4778 151.702 58.4778 151.544 58.4926C151.386 58.5075 151.258 58.5161 151.159 58.5297V59.566H152.042ZM151.153 61.7833C151.252 61.7981 151.384 61.8092 151.549 61.8204C151.715 61.8315 151.867 61.8364 152.007 61.8364C152.288 61.8487 152.567 61.8036 152.83 61.7041C152.916 61.6599 152.99 61.5931 153.041 61.5108C153.093 61.4285 153.122 61.3337 153.125 61.2363C153.128 61.139 153.104 61.0428 153.057 60.9578C153.009 60.8727 152.94 60.802 152.856 60.7532C152.607 60.6523 152.339 60.6072 152.072 60.6208H151.153V61.7833Z" fill="#F8F8F8"/>
<path d="M161.08 60.1571C161.085 60.5644 161.021 60.9695 160.891 61.3554C160.774 61.7001 160.587 62.0168 160.342 62.2854C160.1 62.544 159.805 62.7473 159.477 62.8814C158.758 63.1633 157.96 63.1633 157.241 62.8814C156.913 62.7473 156.618 62.544 156.376 62.2854C156.131 62.0154 155.94 61.6993 155.817 61.3554C155.681 60.9708 155.614 60.5652 155.618 60.1571C155.613 59.7501 155.682 59.3456 155.823 58.9638C155.95 58.6225 156.143 58.31 156.393 58.045C156.637 57.7901 156.931 57.5888 157.257 57.4539C157.603 57.3098 157.974 57.2379 158.349 57.2424C158.726 57.2374 159.101 57.3093 159.45 57.4539C159.777 57.5868 160.072 57.7884 160.315 58.045C160.561 58.3102 160.752 58.6228 160.874 58.9638C161.014 59.346 161.083 59.7502 161.08 60.1571ZM159.475 60.1571C159.475 59.6712 159.379 59.2915 159.185 59.0108C159.094 58.8762 158.97 58.7672 158.825 58.6943C158.68 58.6213 158.519 58.5868 158.357 58.5941C158.194 58.587 158.033 58.6216 157.887 58.6945C157.741 58.7674 157.616 58.8762 157.524 59.0108C157.327 59.2903 157.229 59.6712 157.229 60.1571C157.229 60.6431 157.327 61.0228 157.524 61.3134C157.614 61.4503 157.739 61.5616 157.885 61.6366C158.031 61.7115 158.193 61.7476 158.357 61.7412C158.52 61.7478 158.682 61.7118 158.827 61.6368C158.973 61.5618 159.096 61.4504 159.185 61.3134C159.381 61.029 159.478 60.6435 159.477 60.1571H159.475Z" fill="#F8F8F8"/>
<path d="M20.4464 5.10046L0 16.9225V40.5641L20.4464 52.3861L40.894 40.5641V16.9225L20.4464 5.10046ZM20.4464 9.3606L33.7291 17.04C29.1032 18.1048 24.6376 19.7754 20.4476 22.0087C16.2564 19.7754 11.7896 18.1048 7.16247 17.04L20.4464 9.3606ZM3.68497 20.1093C8.37762 20.8834 12.6998 22.3834 16.5712 24.2334C11.8758 27.18 7.54963 30.679 3.68497 34.6556V20.1093ZM20.4464 48.126L4.68524 39.0134C7.11554 36.32 12.643 30.7689 20.4476 26.2763C28.251 30.7714 33.7785 36.3225 36.2088 39.0134L20.4464 48.126ZM37.2103 34.6556C33.3464 30.6796 29.0215 27.1807 24.3277 24.2334C28.2041 22.3784 32.5238 20.8834 37.2152 20.1093L37.2103 34.6556Z" fill="#915CE5"/>
</svg>
