<svg width="444" height="413" viewBox="0 0 444 413" fill="none" xmlns="http://www.w3.org/2000/svg">
<path d="M136.632 136.8C133.297 134.343 128.599 135.057 126.144 138.394L111.299 158.563L106.223 151.591C103.785 148.243 99.093 147.503 95.743 149.942C92.394 152.381 91.655 157.074 94.094 160.423L102.851 172.449C104.801 175.126 107.942 176.729 111.253 176.738H111.279C114.581 176.738 117.718 175.153 119.676 172.493L138.228 147.289C140.682 143.952 139.968 139.256 136.632 136.8Z" fill="#E4BCA6"/>
<path d="M136.632 259.827C133.297 257.37 128.599 258.084 126.144 261.421L111.299 281.589L106.223 274.618C103.784 271.269 99.094 270.529 95.742 272.968C92.393 275.407 91.654 280.099 94.093 283.448L102.85 295.476C104.799 298.152 107.94 299.756 111.251 299.764C111.26 299.765 111.269 299.765 111.277 299.765C114.579 299.765 117.717 298.179 119.675 295.519L138.227 270.316C140.682 266.979 139.968 262.282 136.632 259.827Z" fill="#E4BCA6"/>
<path d="M136.632 377.611C133.297 375.154 128.599 375.868 126.144 379.205L111.299 399.373L106.223 392.402C103.784 389.054 99.094 388.313 95.742 390.752C92.393 393.191 91.654 397.883 94.093 401.232L102.85 413.26C104.799 415.936 107.94 417.54 111.251 417.548C111.26 417.549 111.269 417.549 111.277 417.549C114.579 417.549 117.717 415.963 119.675 413.303L138.227 388.1C140.682 384.764 139.968 380.067 136.632 377.611Z" fill="#E4BCA6"/>
<path d="M194.007 147.871H286.723C290.866 147.871 294.225 144.513 294.225 140.369C294.225 136.225 290.866 132.867 286.723 132.867H194.007C189.864 132.867 186.505 136.225 186.505 140.369C186.505 144.513 189.864 147.871 194.007 147.871Z" fill="#E4BCA6"/>
<path d="M194.007 179.212H240.365C244.508 179.212 247.867 175.854 247.867 171.71C247.867 167.566 244.508 164.208 240.365 164.208H194.007C189.864 164.208 186.505 167.566 186.505 171.71C186.505 175.854 189.864 179.212 194.007 179.212Z" fill="#E4BCA6"/>
<path d="M194.007 268.276H256.215C260.358 268.276 263.717 264.918 263.717 260.774C263.717 256.63 260.358 253.272 256.215 253.272H194.007C189.864 253.272 186.505 256.63 186.505 260.774C186.505 264.918 189.864 268.276 194.007 268.276Z" fill="#E4BCA6"/>
<path d="M240.365 299.618C244.508 299.618 247.867 296.26 247.867 292.116C247.867 287.972 244.508 284.614 240.365 284.614H194.007C189.864 284.614 186.505 287.972 186.505 292.116C186.505 296.26 189.864 299.618 194.007 299.618H240.365Z" fill="#E4BCA6"/>
<path d="M145.067 108.047H87.2728C76.7438 108.047 68.1768 116.614 68.1768 127.143V184.937C68.1768 195.466 76.7438 204.033 87.2728 204.033H145.067C155.596 204.033 164.163 195.466 164.163 184.937V127.143C164.163 116.614 155.597 108.047 145.067 108.047ZM149.16 184.937C149.16 187.193 147.324 189.029 145.068 189.029H87.2738C85.0178 189.029 83.1818 187.194 83.1818 184.937V127.143C83.1818 124.887 85.0178 123.051 87.2738 123.051H145.068C147.324 123.051 149.16 124.886 149.16 127.143V184.937Z" fill="#E4BCA6"/>
<path d="M145.067 228.453H87.2728C76.7438 228.453 68.1768 237.02 68.1768 247.549V305.343C68.1768 315.872 76.7438 324.439 87.2728 324.439H145.067C155.596 324.439 164.163 315.872 164.163 305.343V247.549C164.163 237.019 155.597 228.453 145.067 228.453ZM149.16 305.343C149.16 307.599 147.324 309.435 145.068 309.435H87.2738C85.0178 309.435 83.1818 307.6 83.1818 305.343V247.549C83.1818 245.293 85.0178 243.457 87.2738 243.457H145.068C147.324 243.457 149.16 245.292 149.16 247.549V305.343Z" fill="#E4BCA6"/>
<path d="M145.067 348.857H87.2728C76.7438 348.857 68.1768 357.424 68.1768 367.953V425.747C68.1768 436.276 76.7438 444.843 87.2728 444.843H145.067C155.596 444.843 164.163 436.276 164.163 425.747V367.953C164.163 357.424 155.597 348.857 145.067 348.857ZM149.16 425.747C149.16 428.003 147.324 429.839 145.068 429.839H87.2738C85.0178 429.839 83.1818 428.004 83.1818 425.747V367.953C83.1818 365.697 85.0178 363.861 87.2738 363.861H145.068C147.324 363.861 149.16 365.696 149.16 367.953V425.747Z" fill="#E4BCA6"/>
<path d="M431.233 128.318L419.327 120.778C413.145 116.862 405.807 115.591 398.669 117.194C391.53 118.799 385.443 123.088 381.53 129.271L370.612 146.523L355.452 170.478L338.308 197.569V84.961C338.308 77.206 331.999 70.897 324.244 70.897H270.488V55.894H342.454C348.441 55.894 353.312 60.764 353.312 66.751V131.719C353.312 135.863 356.671 139.221 360.814 139.221C364.957 139.221 368.316 135.863 368.316 131.719V66.751C368.316 52.492 356.715 40.89 342.455 40.89H268.937C265.865 33.473 258.556 28.239 250.042 28.239H230.662V20.684C230.662 9.28 221.383 0 209.977 0H158.339C146.933 0 137.654 9.28 137.654 20.685V28.24H118.274C109.76 28.24 102.451 33.474 99.38 40.891H25.861C11.601 40.891 0 52.492 0 66.752V486.14C0 500.399 11.601 512.001 25.861 512.001H342.456C356.716 512.001 368.317 500.399 368.317 486.14V317.932C368.317 313.788 364.958 310.43 360.815 310.43C356.672 310.43 353.313 313.788 353.313 317.932V486.139C353.313 492.126 348.442 496.996 342.455 496.996H25.861C19.874 496.996 15.003 492.126 15.003 486.139V66.751C15.003 60.764 19.874 55.894 25.861 55.894H97.827V70.898H44.071C36.316 70.898 30.007 77.207 30.007 84.962V467.929C30.007 475.684 36.316 481.993 44.071 481.993H324.245C332 481.993 338.309 475.684 338.309 467.929V326.357L413.64 207.32C413.641 207.318 413.643 207.315 413.644 207.313L428.799 183.366L439.724 166.103C447.797 153.344 443.988 136.394 431.233 128.318ZM401.959 131.833C405.188 131.105 408.505 131.682 411.3 133.453L423.206 140.994C428.974 144.646 430.696 152.31 427.045 158.079L420.133 169.001L387.301 148.21L394.209 137.295C395.978 134.498 398.73 132.558 401.959 131.833ZM259.877 422.239C258.457 424.481 256.867 426.595 255.126 428.574C252.771 425.416 250.095 422.557 247.152 420.037L386.939 199.293L396.952 205.634L259.877 422.239ZM208.65 466.98C208.598 466.962 208.533 466.927 208.508 466.927C208.503 466.927 208.5 466.928 208.498 466.932C224.748 399.444 216.837 432.299 219.096 422.917C228.842 424.546 237.903 430.025 243.865 438.602C204.143 470.61 209.214 466.467 208.65 466.98ZM379.278 160.888L412.11 181.679L404.974 192.955L372.142 172.164L379.278 160.888ZM112.83 48.854C112.835 48.762 112.841 48.67 112.843 48.577C112.844 48.545 112.84 48.514 112.841 48.482C112.949 45.576 115.341 43.242 118.274 43.242H139.765C146.874 43.242 152.658 37.458 152.658 30.349V20.684C152.658 17.551 155.207 15.003 158.34 15.003H209.978C213.111 15.003 215.66 17.551 215.66 20.684V30.349C215.66 37.458 221.444 43.242 228.553 43.242H250.044C252.977 43.242 255.369 45.575 255.477 48.482C255.477 48.514 255.474 48.545 255.475 48.577C255.477 48.668 255.483 48.76 255.488 48.852V70.897H112.83V48.854ZM45.01 85.901H323.305V221.278L244.789 345.35C242.573 348.851 243.615 353.486 247.116 355.701C250.602 357.906 255.242 356.89 257.467 353.373L364.118 184.842L374.262 191.265L234.475 412.01C230.939 410.427 227.211 409.23 223.349 408.452C224.395 406.032 225.625 403.69 227.045 401.446L238.707 383.019C240.923 379.518 239.881 374.884 236.38 372.668C232.878 370.453 228.244 371.495 226.029 374.996L214.368 393.422C210.515 399.507 207.707 406.14 206.02 413.138C206.02 413.14 206.019 413.141 206.019 413.143L193.931 463.294C193.632 464.533 193.493 465.772 193.496 466.99H45.01V85.901ZM323.305 466.989H232.552L258.299 446.242C263.903 441.726 268.699 436.351 272.553 430.264L323.305 350.066V466.989Z" fill="#E4BCA6"/>
</svg>
