<svg width="169" height="169" viewBox="0 0 169 169" fill="none" xmlns="http://www.w3.org/2000/svg">
<g clip-path="url(#clip0)">
<path d="M84.4437 169C83.8874 169 83.324 168.866 82.817 168.599L1.89421 126.349C0.732333 125.743 0 124.539 0 123.229V44.0105C0 42.7923 0.63375 41.6586 1.66887 41.0178C2.704 40.377 4.00671 40.3207 5.09112 40.8629L86.014 81.3525C87.204 81.951 87.9575 83.1692 87.9575 84.5001V165.479C87.9575 166.712 87.3167 167.852 86.2604 168.493C85.7112 168.831 85.0774 169 84.4437 169ZM7.04167 121.096L80.9228 159.67V86.6759L7.04167 49.7072V121.096Z" fill="#C9702F"/>
<path d="M84.5565 169C83.9227 169 83.289 168.831 82.7327 168.493C81.6835 167.852 81.0356 166.711 81.0356 165.479V84.4999C81.0356 83.1691 81.7891 81.9509 82.9791 81.3523L163.902 40.8627C164.979 40.3135 166.289 40.3698 167.324 41.0177C168.366 41.6584 169 42.7922 169 44.0104V123.229C169 124.539 168.268 125.743 167.106 126.349L86.1831 168.599C85.6761 168.866 85.1128 169 84.5565 169ZM88.0773 86.6758V159.67L161.958 121.095V49.7071L88.0773 86.6758ZM165.479 123.229H165.55H165.479Z" fill="#C9702F"/>
<path d="M3.51985 47.5316C2.22418 47.5316 0.984851 46.8204 0.365184 45.5881C-0.507982 43.8488 0.203226 41.7363 1.94252 40.8632L82.978 0.373594C83.9709 -0.119323 85.1398 -0.119323 86.1256 0.373594L167.048 40.8632C168.788 41.7363 169.492 43.8488 168.626 45.5881C167.753 47.3274 165.647 48.0246 163.901 47.1655L84.5553 7.45751L5.09718 47.1584C4.59018 47.4119 4.05502 47.5316 3.51985 47.5316Z" fill="#C9702F"/>
<path d="M126.75 105.625C124.807 105.625 123.229 104.048 123.229 102.104V65.551L44.2499 26.0331C42.5106 25.167 41.8064 23.0475 42.6796 21.3082C43.5528 19.5689 45.6653 18.8718 47.4046 19.7308L128.327 60.2204C129.517 60.826 130.271 62.0442 130.271 63.3751V102.104C130.271 104.048 128.694 105.625 126.75 105.625Z" fill="#C9702F"/>
</g>
<defs>
<clipPath id="clip0">
<rect width="169" height="169" fill="white"/>
</clipPath>
</defs>
</svg>
