<svg width="169" height="169" viewBox="0 0 169 169" fill="none" xmlns="http://www.w3.org/2000/svg">
<path d="M142.594 120.809C138.946 120.809 135.992 123.763 135.992 127.41C135.992 131.058 138.946 134.012 142.594 134.012C146.241 134.012 149.195 131.058 149.195 127.41C149.195 123.763 146.241 120.809 142.594 120.809Z" fill="#C9702F"/>
<path d="M139.293 94.4023C137.471 94.4023 135.992 95.8812 135.992 97.7031C135.992 99.525 137.471 101.004 139.293 101.004C141.115 101.004 142.594 99.525 142.594 97.7031C142.594 95.8812 141.115 94.4023 139.293 94.4023Z" fill="#C9702F"/>
<path d="M41.5898 120.809C37.9422 120.809 34.9883 123.763 34.9883 127.41C34.9883 131.058 37.9422 134.012 41.5898 134.012C45.2375 134.012 48.1914 131.058 48.1914 127.41C48.1914 123.763 45.2375 120.809 41.5898 120.809Z" fill="#C9702F"/>
<path d="M155.126 81.4107L149.435 58.6456C151.458 56.7103 152.496 54.1431 152.496 51.4922C152.496 46.0317 148.054 41.5898 142.594 41.5898H116.188V31.6875C116.188 26.227 111.746 21.7852 106.285 21.7852H9.90234C4.44187 21.7852 0 26.227 0 31.6875V117.508C0 122.968 4.44187 127.41 9.90234 127.41H21.7852C21.7852 138.331 30.6689 147.215 41.5898 147.215C52.5108 147.215 61.3945 138.331 61.3945 127.41H122.789C122.789 138.331 131.673 147.215 142.594 147.215C153.515 147.215 162.398 138.331 162.398 127.41C162.398 127.222 162.389 127.035 162.384 126.847C166.233 125.489 169 121.816 169 117.508V97.7031C169 89.4976 162.981 82.6743 155.126 81.4107ZM143.317 61.3945L148.268 81.1992H120.855L128.424 73.6306C129.713 72.3413 129.713 70.2525 128.424 68.9631C127.134 67.6738 125.045 67.6738 123.756 68.9631L116.188 76.5304V61.3945H143.317ZM145.895 51.4922C145.895 53.3141 144.416 54.793 142.594 54.793H116.188V48.1914H142.594C144.414 48.1914 145.895 49.6716 145.895 51.4922ZM41.5898 140.613C34.3101 140.613 28.3867 134.69 28.3867 127.41C28.3867 120.031 34.4171 114.207 41.5898 114.207C48.7794 114.207 54.793 120.047 54.793 127.41C54.793 134.69 48.8696 140.613 41.5898 140.613ZM60.2612 120.809C57.5045 113.02 50.0429 107.605 41.5898 107.605C33.1329 107.605 25.6687 113.023 22.9172 120.809H9.90234C8.08176 120.809 6.60156 119.328 6.60156 117.508V31.6875C6.60156 29.8669 8.08176 28.3867 9.90234 28.3867H106.285C108.106 28.3867 109.586 29.8669 109.586 31.6875V120.809H60.2612ZM142.594 140.613C135.314 140.613 129.391 134.69 129.391 127.41C129.391 120.031 135.421 114.207 142.594 114.207C149.783 114.207 155.797 120.047 155.797 127.41C155.797 134.69 149.874 140.613 142.594 140.613ZM161.03 120.178C158.102 112.728 150.817 107.605 142.594 107.605C134.137 107.605 126.673 113.023 123.921 120.809H116.188V87.8008H152.496C156.799 87.8008 160.468 90.56 161.831 94.4023H152.496C150.673 94.4023 149.195 95.88 149.195 97.7031C149.195 99.5263 150.673 101.004 152.496 101.004H162.398V117.508C162.398 118.605 161.857 119.577 161.03 120.178Z" fill="#C9702F"/>
<path d="M58.0938 41.5898C41.7136 41.5898 28.3867 54.9167 28.3867 71.2969C28.3867 87.677 41.7136 101.004 58.0938 101.004C74.4739 101.004 87.8008 87.677 87.8008 71.2969C87.8008 54.9167 74.4739 41.5898 58.0938 41.5898ZM58.0938 94.4023C45.3535 94.4023 34.9883 84.0371 34.9883 71.2969C34.9883 58.5566 45.3535 48.1914 58.0938 48.1914C70.834 48.1914 81.1992 58.5566 81.1992 71.2969C81.1992 84.0371 70.834 94.4023 58.0938 94.4023Z" fill="#C9702F"/>
<path d="M71.2969 67.9961H61.3945V58.0938C61.3945 56.2706 59.9169 54.793 58.0938 54.793C56.2706 54.793 54.793 56.2706 54.793 58.0938V71.2969C54.793 73.12 56.2706 74.5977 58.0938 74.5977H71.2969C73.12 74.5977 74.5977 73.12 74.5977 71.2969C74.5977 69.4737 73.12 67.9961 71.2969 67.9961Z" fill="#C9702F"/>
</svg>
