<svg width="26" height="27" viewBox="0 0 26 27" fill="none" xmlns="http://www.w3.org/2000/svg">
<path d="M23.7148 3.9993H2.28516C1.0267 3.9993 0 5.02488 0 6.28445V21.5188C0 22.7741 1.02213 23.804 2.28516 23.804H23.7148C24.9702 23.804 26 22.7819 26 21.5188V6.28445C26 5.02914 24.9779 3.9993 23.7148 3.9993ZM23.3993 5.52274L13.0484 15.8736L2.60807 5.52274H23.3993ZM1.52344 21.2034V6.59265L8.86026 13.8666L1.52344 21.2034ZM2.60066 22.2805L9.94211 14.9391L12.5145 17.4894C12.8123 17.7847 13.2929 17.7837 13.5894 17.4871L16.0977 14.9789L23.3993 22.2805H2.60066ZM24.4766 21.2033L17.1749 13.9016L24.4766 6.59991V21.2033Z" fill="#C9702F"/>
</svg>
