<svg width="50" height="50" viewBox="0 0 50 50" fill="none" xmlns="http://www.w3.org/2000/svg">
<path d="M36.4654 0H13.5345C6.07146 0 0 6.07146 0 13.5345V36.4658C0 43.9284 6.07146 49.9999 13.5345 49.9999H36.4658C43.9284 49.9999 49.9999 43.9284 49.9999 36.4658V13.5345C49.9999 6.07146 43.9284 0 36.4654 0V0ZM25 38.6714C17.4614 38.6714 11.3285 32.5385 11.3285 25C11.3285 17.4614 17.4614 11.3285 25 11.3285C32.5385 11.3285 38.6714 17.4614 38.6714 25C38.6714 32.5385 32.5385 38.6714 25 38.6714ZM38.9983 14.5527C36.7706 14.5527 34.9586 12.7407 34.9586 10.5129C34.9586 8.28513 36.7706 6.47277 38.9983 6.47277C41.2261 6.47277 43.0385 8.28513 43.0385 10.5129C43.0385 12.7407 41.2261 14.5527 38.9983 14.5527Z" fill="#C9702F"/>
<path d="M25 14.2598C19.0781 14.2598 14.2598 19.0777 14.2598 25C14.2598 30.922 19.0781 35.7403 25 35.7403C30.9223 35.7403 35.7403 30.922 35.7403 25C35.7403 19.0777 30.9223 14.2598 25 14.2598Z" fill="#C9702F"/>
<path d="M38.9987 9.4043C38.3876 9.4043 37.8901 9.90173 37.8901 10.5128C37.8901 11.124 38.3876 11.6214 38.9987 11.6214C39.6102 11.6214 40.1076 11.1243 40.1076 10.5128C40.1076 9.90135 39.6102 9.4043 38.9987 9.4043Z" fill="#C9702F"/>
</svg>
