<svg width="10" height="13" viewBox="0 0 10 13" fill="none" xmlns="http://www.w3.org/2000/svg">
<path d="M5 0.0819671C2.48 0.0819671 0.429688 2.21631 0.429688 4.83959C0.429688 5.87772 0.744688 6.86414 1.34141 7.69172L4.71828 12.4262C4.72672 12.4377 4.73961 12.442 4.74898 12.4523C4.91773 12.6404 5.16125 12.5931 5.28148 12.4262C6.25391 11.0755 8.03633 8.55297 8.72164 7.60145C8.72164 7.60145 8.72188 7.60071 8.72211 7.60023L8.72633 7.59437C9.27852 6.7868 9.57031 5.8343 9.57031 4.83959C9.57031 2.21631 7.52 0.0819671 5 0.0819671ZM5 7.40626C3.6432 7.40626 2.53438 6.25199 2.53438 4.83959C2.53438 3.42718 3.6432 2.27291 5 2.27291C6.3568 2.27291 7.46563 3.42718 7.46563 4.83959C7.46563 6.25199 6.3568 7.40626 5 7.40626Z" fill="#464646"/>
</svg>
