<svg width="169" height="169" viewBox="0 0 169 169" fill="none" xmlns="http://www.w3.org/2000/svg">
<g clip-path="url(#clip0)">
<path d="M71.3008 114.207C73.1238 114.207 74.6016 112.729 74.6016 110.906C74.6016 109.083 73.1238 107.605 71.3008 107.605C69.4778 107.605 68 109.083 68 110.906C68 112.729 69.4778 114.207 71.3008 114.207Z" fill="#C9702F"/>
<path d="M13.207 44.8906V58.0938C13.207 59.9168 14.6848 61.3945 16.5078 61.3945H111.9C113.723 61.3945 115.201 59.9168 115.201 58.0938V44.8906C115.201 43.0676 113.723 41.5898 111.9 41.5898H16.5078C14.6848 41.5898 13.207 43.0676 13.207 44.8906ZM48.1953 48.1914H108.6V54.793H48.1953V48.1914ZM19.8086 48.1914H41.5938V54.793H19.8086V48.1914Z" fill="#C9702F"/>
<path d="M16.5078 74.5977H111.9C113.723 74.5977 115.201 73.1199 115.201 71.2969C115.201 69.4739 113.723 67.9961 111.9 67.9961H16.5078C14.6848 67.9961 13.207 69.4739 13.207 71.2969C13.207 73.1199 14.6848 74.5977 16.5078 74.5977Z" fill="#C9702F"/>
<path d="M16.5078 87.8008H111.9C113.723 87.8008 115.201 86.323 115.201 84.5C115.201 82.677 113.723 81.1992 111.9 81.1992H16.5078C14.6848 81.1992 13.207 82.677 13.207 84.5C13.207 86.323 14.6848 87.8008 16.5078 87.8008Z" fill="#C9702F"/>
<path d="M16.5078 101.004H71.3008C73.1238 101.004 74.6016 99.5261 74.6016 97.7031C74.6016 95.8801 73.1238 94.4023 71.3008 94.4023H16.5078C14.6848 94.4023 13.207 95.8801 13.207 97.7031C13.207 99.5261 14.6848 101.004 16.5078 101.004Z" fill="#C9702F"/>
<path d="M16.5078 114.207H58.0977C59.9207 114.207 61.3984 112.729 61.3984 110.906C61.3984 109.083 59.9207 107.605 58.0977 107.605H16.5078C14.6848 107.605 13.207 109.083 13.207 110.906C13.207 112.729 14.6848 114.207 16.5078 114.207Z" fill="#C9702F"/>
<path d="M44.8945 140.613H61.7305C63.264 148.137 69.932 153.816 77.9024 153.816C87.0026 153.816 94.4063 146.413 94.4063 137.312C94.4063 128.212 87.0026 120.809 77.9024 120.809C69.9323 120.809 63.264 126.488 61.7305 134.012H44.8945C43.0715 134.012 41.5938 135.489 41.5938 137.312C41.5938 139.136 43.0715 140.613 44.8945 140.613ZM77.9024 134.012H68.5677C69.9303 130.17 73.5991 127.41 77.9024 127.41C83.3625 127.41 87.8047 131.852 87.8047 137.312C87.8047 142.773 83.3625 147.215 77.9024 147.215C73.5994 147.215 69.9303 144.455 68.5677 140.613H77.9024C79.725 140.613 81.2031 139.136 81.2031 137.312C81.2031 135.489 79.7254 134.012 77.9024 134.012Z" fill="#C9702F"/>
<path d="M111.9 26.4062C113.723 26.4062 115.201 24.9285 115.201 23.1055C115.201 21.2824 113.723 19.8047 111.9 19.8047H105.299C103.476 19.8047 101.998 21.2824 101.998 23.1055C101.998 24.9285 103.476 26.4062 105.299 26.4062H111.9Z" fill="#C9702F"/>
<path d="M92.0957 26.4062C93.9184 26.4062 95.3965 24.9285 95.3965 23.1055C95.3965 21.2824 93.9184 19.8047 92.0957 19.8047H85.4941C83.6715 19.8047 82.1934 21.2824 82.1934 23.1055C82.1934 24.9285 83.6715 26.4062 85.4941 26.4062H92.0957Z" fill="#C9702F"/>
<path d="M72.291 26.4062C74.114 26.4062 75.5918 24.9285 75.5918 23.1055C75.5918 21.2824 74.114 19.8047 72.291 19.8047H65.6895C63.8664 19.8047 62.3887 21.2824 62.3887 23.1055C62.3887 24.9285 63.8664 26.4062 65.6895 26.4062H72.291Z" fill="#C9702F"/>
<path d="M64.6992 169C66.5222 169 68 167.522 68 165.699C68 163.876 66.5222 162.398 64.6992 162.398C62.8762 162.398 61.3984 163.876 61.3984 165.699C61.3984 167.522 62.8762 169 64.6992 169Z" fill="#C9702F"/>
<path d="M3.30566 169H49.8467C51.6697 169 53.1475 167.522 53.1475 165.699C53.1475 163.876 51.6697 162.398 49.8467 162.398H6.60645V33.0078H29.7119C31.5349 33.0078 33.0127 31.5301 33.0127 29.707V6.60156H121.804V99.8988C120.306 101.67 118.908 103.226 117.699 104.467L110.701 97.4691C104.253 91.0167 93.8098 91.0138 87.3594 97.4684L82.6921 102.136C81.4031 103.425 81.4031 105.515 82.6921 106.804L121.803 145.915V162.398H79.5534C77.7304 162.398 76.2526 163.876 76.2526 165.699C76.2526 167.522 77.7304 169 79.5534 169H125.104C126.927 169 128.405 167.522 128.405 165.699V152.517L129.372 153.483C130.661 154.771 132.751 154.772 134.04 153.483L138.707 148.816C145.156 142.367 145.158 131.926 138.707 125.476L131.711 118.479C137.972 112.378 151.744 102.244 158.981 99.0924C169.138 94.671 172.803 80.8609 164.137 72.1947C155.536 63.5896 141.787 67.0861 137.283 77.2723C135.594 81.09 132.094 86.4577 128.405 91.4878V3.30078C128.405 1.47776 126.927 0 125.104 0H29.7119C28.8118 0 27.9658 0.37959 27.3779 0.966799L0.971682 27.373C0.37457 27.9688 0.00488281 28.8112 0.00488281 29.707V165.699C0.00488281 167.522 1.48264 169 3.30566 169ZM134.039 130.144C137.909 134.013 137.909 140.278 134.039 144.148L131.706 146.481L89.6944 104.47L92.0284 102.136C95.8975 98.2646 102.161 98.2626 106.032 102.136L134.039 130.144ZM127.692 103.15C133.412 96.2514 140.463 86.3999 143.32 79.9429C145.886 74.1412 154.04 71.4312 159.469 76.8623C164.9 82.2934 162.141 90.5173 156.345 93.0398C148.132 96.6172 133.837 107.167 127.042 113.81L122.367 109.135C123.932 107.534 125.76 105.481 127.692 103.15ZM26.4111 11.2695V26.4062H11.2744L26.4111 11.2695Z" fill="#C9702F"/>
</g>
<defs>
<clipPath id="clip0">
<rect width="169" height="169" fill="white"/>
</clipPath>
</defs>
</svg>
