<svg width="26" height="27" viewBox="0 0 26 27" fill="none" xmlns="http://www.w3.org/2000/svg">
<g clip-path="url(#clip0)">
<path d="M20.5483 17.0077C20.016 16.4535 19.374 16.1572 18.6936 16.1572C18.0186 16.1572 17.3711 16.448 16.8168 17.0022L15.0828 18.7308C14.9401 18.654 14.7975 18.5826 14.6603 18.5113C14.4627 18.4125 14.2761 18.3192 14.117 18.2204C12.4927 17.1888 11.0166 15.8444 9.60081 14.1048C8.91487 13.2378 8.45393 12.508 8.11919 11.7672C8.56916 11.3556 8.98621 10.9276 9.39229 10.516C9.54593 10.3624 9.69958 10.2032 9.85323 10.0496C11.0056 8.89722 11.0056 7.40463 9.85323 6.25225L8.35515 4.75417C8.18504 4.58406 8.00944 4.40846 7.84482 4.23286C7.51557 3.89264 7.16986 3.54144 6.81317 3.21219C6.28088 2.68539 5.64434 2.40553 4.97487 2.40553C4.30539 2.40553 3.65787 2.68539 3.10912 3.21219C3.10364 3.21768 3.10364 3.21768 3.09815 3.22317L1.23241 5.10537C0.530009 5.80777 0.129423 6.66382 0.0416231 7.65705C-0.0900763 9.25939 0.381847 10.752 0.74402 11.7288C1.63299 14.1268 2.96096 16.3492 4.94194 18.7308C7.34546 21.6007 10.2374 23.8671 13.5408 25.4639C14.8029 26.062 16.4876 26.7699 18.3698 26.8907C18.485 26.8961 18.6058 26.9016 18.7155 26.9016C19.9831 26.9016 21.0477 26.4462 21.8818 25.5407C21.8873 25.5298 21.8982 25.5243 21.9037 25.5133C22.1891 25.1676 22.5183 24.8548 22.864 24.5201C23.1 24.2951 23.3415 24.0591 23.5774 23.8122C24.1207 23.247 24.406 22.5885 24.406 21.9135C24.406 21.2331 24.1152 20.5801 23.561 20.0313L20.5483 17.0077ZM22.5128 22.786C22.5074 22.786 22.5074 22.7915 22.5128 22.786C22.2988 23.0165 22.0793 23.225 21.8434 23.4555C21.4867 23.7957 21.1245 24.1524 20.7843 24.553C20.2301 25.1456 19.577 25.4255 18.721 25.4255C18.6387 25.4255 18.5509 25.4255 18.4686 25.42C16.8388 25.3158 15.3242 24.6792 14.1883 24.1359C11.0824 22.6324 8.35515 20.4977 6.08882 17.7924C4.21759 15.5371 2.96645 13.4518 2.13784 11.2129C1.6275 9.84655 1.44093 8.78198 1.52324 7.77777C1.57812 7.13574 1.82505 6.60345 2.28051 6.14799L4.15174 4.27676C4.42063 4.02434 4.70598 3.88715 4.98584 3.88715C5.33155 3.88715 5.61141 4.09568 5.78701 4.27128C5.7925 4.27676 5.79799 4.28225 5.80347 4.28774C6.13821 4.60052 6.45648 4.92429 6.79122 5.27C6.96133 5.4456 7.13693 5.6212 7.31253 5.80228L8.81061 7.30036C9.39228 7.88204 9.39228 8.41981 8.81061 9.00148C8.65147 9.16062 8.49783 9.31975 8.33869 9.4734C7.87774 9.94533 7.43874 10.3843 6.96133 10.8123C6.95036 10.8233 6.93938 10.8288 6.9339 10.8398C6.46197 11.3117 6.54977 11.7727 6.64855 12.0854C6.65403 12.1019 6.65952 12.1184 6.66501 12.1348C7.05462 13.0787 7.60337 13.9676 8.43746 15.0267L8.44295 15.0322C9.95749 16.898 11.5544 18.3521 13.3158 19.4661C13.5408 19.6088 13.7713 19.724 13.9908 19.8338C14.1883 19.9325 14.3749 20.0258 14.534 20.1246C14.556 20.1356 14.578 20.152 14.5999 20.163C14.7865 20.2563 14.9621 20.3002 15.1432 20.3002C15.5986 20.3002 15.884 20.0148 15.9773 19.9216L17.854 18.0448C18.0405 17.8583 18.3369 17.6333 18.6826 17.6333C19.0228 17.6333 19.3027 17.8473 19.4728 18.0339C19.4783 18.0394 19.4783 18.0394 19.4838 18.0448L22.5074 21.0684C23.0726 21.6282 23.0726 22.2044 22.5128 22.786Z" fill="#C9702F"/>
<path d="M14.0512 7.08636C15.4889 7.3278 16.7949 8.00825 17.8375 9.05087C18.8802 10.0935 19.5551 11.3995 19.8021 12.8372C19.8624 13.1994 20.1752 13.4518 20.5319 13.4518C20.5758 13.4518 20.6142 13.4463 20.6581 13.4409C21.0642 13.375 21.3331 12.9909 21.2672 12.5848C20.9709 10.8453 20.1478 9.2594 18.8911 8.00276C17.6345 6.74613 16.0486 5.92301 14.3091 5.62669C13.903 5.56084 13.5244 5.82972 13.4531 6.23031C13.3817 6.63089 13.6451 7.02051 14.0512 7.08636Z" fill="#C9702F"/>
<path d="M25.9697 12.3708C25.4813 9.50633 24.1314 6.89978 22.0571 4.82552C19.9829 2.75125 17.3763 1.40133 14.5118 0.912944C14.1113 0.841606 13.7326 1.11598 13.6613 1.51657C13.5954 1.92264 13.8643 2.30128 14.2704 2.37261C16.8276 2.80612 19.1597 4.01886 21.0145 5.86814C22.8693 7.7229 24.0765 10.0551 24.51 12.6122C24.5704 12.9744 24.8832 13.2268 25.2399 13.2268C25.2838 13.2268 25.3222 13.2214 25.3661 13.2159C25.7667 13.1555 26.041 12.7714 25.9697 12.3708Z" fill="#C9702F"/>
</g>
<defs>
<clipPath id="clip0">
<rect width="26" height="26" fill="white" transform="translate(0 0.901642)"/>
</clipPath>
</defs>
</svg>
