<svg width="50" height="50" viewBox="0 0 50 50" fill="none" xmlns="http://www.w3.org/2000/svg">
<path d="M48.5625 30.3062C48.925 28.6781 49.1125 26.9906 49.1125 25.2594C49.1125 12.275 38.4375 1.74688 25.2656 1.74688C23.8781 1.74688 22.5156 1.86563 21.1875 2.09063C19.0563 0.76875 16.5344 0 13.8313 0C6.19063 0 0 6.10312 0 13.6375C0 16.1531 0.69375 18.5063 1.9 20.5344C1.58437 22.0594 1.41562 23.6406 1.41562 25.2594C1.41562 38.2469 12.0937 48.775 25.2625 48.775C26.7562 48.775 28.2156 48.6375 29.6313 48.3813C31.5813 49.4125 33.8062 50 36.1719 50C43.8094 50 50 43.8937 50 36.3656C50 34.1875 49.4813 32.1344 48.5625 30.3062ZM37.4969 36.4969C36.3937 38.0375 34.7656 39.2563 32.65 40.1188C30.5594 40.9781 28.0562 41.4156 25.2 41.4156C21.775 41.4156 18.9031 40.8219 16.6594 39.6469C15.0562 38.7938 13.7375 37.6406 12.7344 36.2094C11.7187 34.7719 11.2094 33.3438 11.2094 31.9625C11.2094 31.1031 11.5437 30.3563 12.2031 29.7469C12.8562 29.1375 13.6938 28.8344 14.6938 28.8344C15.5125 28.8344 16.2188 29.075 16.7938 29.5531C17.3406 30.0125 17.8125 30.6938 18.1906 31.5656C18.6125 32.5219 19.0719 33.3281 19.5562 33.9562C20.0281 34.5719 20.7 35.0844 21.5594 35.4875C22.425 35.8875 23.5906 36.0969 25.0219 36.0969C26.9937 36.0969 28.6125 35.6813 29.825 34.8625C31.0156 34.0656 31.5906 33.1031 31.5906 31.9281C31.5906 31.0031 31.2875 30.2719 30.6719 29.7C30.0219 29.1 29.1656 28.6344 28.1281 28.3125C27.0438 27.9813 25.5719 27.6188 23.7531 27.2438C21.275 26.7219 19.1719 26.1031 17.5031 25.4C15.7937 24.6813 14.4125 23.6875 13.4062 22.4438C12.3812 21.1781 11.8625 19.5938 11.8625 17.7312C11.8625 15.9562 12.4062 14.3562 13.4813 12.975C14.5469 11.6031 16.1031 10.5312 18.1125 9.80313C20.0906 9.08125 22.4438 8.71562 25.1094 8.71562C27.2375 8.71562 29.1094 8.95937 30.675 9.44062C32.2469 9.92188 33.5719 10.5719 34.6125 11.375C35.6625 12.1875 36.4437 13.0469 36.9312 13.9469C37.425 14.8531 37.6781 15.7563 37.6781 16.6281C37.6781 17.4688 37.35 18.2344 36.7 18.8969C36.0438 19.5688 35.2188 19.9062 34.25 19.9062C33.3688 19.9062 32.675 19.6906 32.1969 19.275C31.75 18.8844 31.2844 18.275 30.7719 17.4062C30.1781 16.2938 29.4562 15.4156 28.6312 14.7938C27.8281 14.1906 26.4906 13.8906 24.6469 13.8906C22.9406 13.8906 21.5469 14.2281 20.5156 14.8969C19.5219 15.5375 19.0375 16.275 19.0375 17.15C19.0375 17.6844 19.1938 18.1313 19.5156 18.5156C19.8531 18.9281 20.3312 19.2812 20.9375 19.5812C21.5625 19.8906 22.2094 20.1406 22.8563 20.3156C23.5188 20.4969 24.6281 20.7687 26.1562 21.1156C28.0875 21.5219 29.8594 21.9812 31.4281 22.4781C33.0187 22.975 34.3875 23.5906 35.5125 24.3125C36.6531 25.0469 37.5563 25.9844 38.2 27.1094C38.8438 28.2438 39.1688 29.6344 39.1688 31.2531C39.1656 33.1875 38.6031 34.9531 37.4969 36.4969Z" fill="#C9702F"/>
</svg>
