<svg width="50" height="30" viewBox="0 0 50 30" fill="none" xmlns="http://www.w3.org/2000/svg">
<path d="M41.4896 17.1415C40.6813 16.1207 40.9125 15.6665 41.4896 14.754C41.5 14.7436 48.1729 5.52275 48.8604 2.39567L48.8646 2.39359C49.2063 1.254 48.8646 0.416504 47.2125 0.416504H41.7458C40.3542 0.416504 39.7125 1.13525 39.3688 1.93942C39.3688 1.93942 36.5854 8.60192 32.6479 12.9207C31.3771 14.1686 30.7896 14.5686 30.0958 14.5686C29.7542 14.5686 29.2229 14.1686 29.2229 13.029V2.39359C29.2229 1.02692 28.8333 0.416504 27.6813 0.416504H19.0854C18.2125 0.416504 17.6938 1.054 17.6938 1.64775C17.6938 2.94359 19.6625 3.2415 19.8667 6.88734V14.7978C19.8667 16.5311 19.5521 16.8498 18.8542 16.8498C16.9958 16.8498 12.4854 10.1603 9.8125 2.504C9.27292 1.01859 8.74583 0.418587 7.34375 0.418587H1.875C0.314583 0.418587 0 1.13734 0 1.9415C0 3.36234 1.85833 10.4269 8.64167 19.7603C13.1625 26.1311 19.5292 29.5832 25.3208 29.5832C28.8021 29.5832 29.2271 28.8165 29.2271 27.4978C29.2271 21.4103 28.9125 20.8353 30.6563 20.8353C31.4646 20.8353 32.8563 21.2353 36.1063 24.3082C39.8208 27.9519 40.4313 29.5832 42.5104 29.5832H47.9771C49.5354 29.5832 50.325 28.8165 49.8708 27.304C48.8313 24.1228 41.8063 17.579 41.4896 17.1415Z" fill="#C9702F"/>
</svg>
