<svg width="169" height="169" viewBox="0 0 169 169" fill="none" xmlns="http://www.w3.org/2000/svg">
<g clip-path="url(#clip0)">
<path d="M157.909 76.0528H152.277V30.9871C152.277 29.4302 151.016 28.1706 149.46 28.1706H132.4L126.799 10.4255C126.564 9.68484 126.035 9.07481 125.339 8.73662C124.64 8.39771 123.833 8.36453 123.108 8.64059L100.17 17.3822L89.8674 1.30262C89.4621 0.669291 88.8203 0.223067 88.0839 0.0670303C87.3496 -0.0981854 86.5779 0.0451428 85.953 0.462418L43.6642 28.1706H19.8964C9.01335 28.1826 0.194079 37.0033 0.180664 47.8864V149.284C0.194079 160.167 9.01335 168.987 19.8964 169H149.46C151.016 169 152.277 167.738 152.277 166.183V132.384H157.909C164.133 132.384 169.177 127.34 169.177 121.119V87.3193C169.177 81.0954 164.133 76.0528 157.909 76.0528ZM157.909 81.6857C161.021 81.6857 163.543 84.2063 163.543 87.3193C163.543 90.4301 161.021 92.9514 157.909 92.9514H152.277V81.6857H157.909ZM146.643 33.8042V61.9692H143.075L134.18 33.8042H146.643ZM137.17 61.9692H128.959L121.15 38.546C120.768 37.3959 119.691 36.6185 118.478 36.6192C115.617 36.6284 112.87 35.4917 110.853 33.4632L109.202 31.8117C108.425 31.0344 107.266 30.7795 106.234 31.1608L22.8999 61.9692H19.8964C16.1409 61.9685 12.5415 60.4647 9.90439 57.7916L122.327 14.9802L137.17 61.9692ZM123.022 61.9692H39.1405L106.497 37.0697L106.87 37.4453C109.436 40.0259 112.794 41.6738 116.405 42.1222L123.022 61.9692ZM86.6506 6.7385L94.7815 19.4382L29.0885 44.4557L86.6506 6.7385ZM19.8964 33.8042H35.0652L6.63467 52.4312C6.11007 50.9732 5.83189 49.4362 5.81424 47.8864C5.82412 40.1128 12.1235 33.812 19.8964 33.8042ZM146.643 163.366H19.8964C12.1235 163.357 5.82412 157.057 5.81424 149.284V61.6875C5.84107 61.7122 5.87002 61.7355 5.89543 61.7638C6.11572 61.9834 6.34872 62.1853 6.57818 62.3943C6.80553 62.6026 7.05053 62.8412 7.30118 63.0502C7.55253 63.2592 7.79471 63.4272 8.04183 63.6136C8.28965 63.8 8.55512 64.0133 8.82483 64.2011C9.09525 64.3854 9.3572 64.5287 9.62267 64.6932C9.88815 64.857 10.1706 65.042 10.4671 65.2001C10.7636 65.3569 11.0447 65.4811 11.3348 65.6252C11.625 65.7678 11.899 65.9069 12.1969 66.0417C12.4956 66.1766 12.8373 66.2811 13.1572 66.3962C13.4784 66.512 13.7206 66.6221 14.0171 66.7111C14.3709 66.8248 14.7359 66.9045 15.0995 66.9935C15.3819 67.0606 15.6389 67.1467 15.9143 67.2025C16.3287 67.2893 16.7594 67.3395 17.1795 67.3995C17.4153 67.4313 17.6448 67.4807 17.8842 67.5061C18.5521 67.5725 19.2242 67.6042 19.8964 67.6035H23.5601L23.6003 67.7108L23.9018 67.6035H146.643V92.9514H115.661C104.774 92.9514 95.9451 101.778 95.9451 112.668C95.9451 123.557 104.774 132.384 115.661 132.384H146.643V163.366ZM163.543 121.119C163.543 124.229 161.021 126.751 157.909 126.751H115.661C107.884 126.751 101.579 120.446 101.579 112.668C101.579 104.889 107.884 98.5857 115.661 98.5857H157.909C158.59 98.5786 159.265 98.5095 159.933 98.3795C160.093 98.352 160.251 98.3202 160.409 98.2821C161.046 98.1444 161.67 97.9496 162.273 97.7038L162.369 97.658C162.772 97.4871 163.163 97.2894 163.543 97.0726V121.119Z" fill="#C9702F"/>
<path d="M60.9404 76.053H72.2076V81.6859H60.9404V76.053Z" fill="#C9702F"/>
<path d="M38.4092 76.053H49.6749V81.6859H38.4092V76.053Z" fill="#C9702F"/>
<path d="M128.539 76.053H138.193V81.6859H128.539V76.053Z" fill="#C9702F"/>
<path d="M106.007 76.053H117.273V81.6859H106.007V76.053Z" fill="#C9702F"/>
<path d="M16.5731 75.6582L15.2549 81.1223C16.7757 81.4902 18.3333 81.6801 19.8965 81.6858H27.1412V76.0529H19.8965C18.7781 76.0501 17.6625 75.918 16.5731 75.6582Z" fill="#C9702F"/>
<path d="M83.4736 76.053H94.7401V81.6859H83.4736V76.053Z" fill="#C9702F"/>
<path d="M16.5731 148.889L15.2549 154.352C16.7757 154.721 18.3333 154.912 19.8965 154.917H27.1412V149.284H19.8965C18.7781 149.28 17.6625 149.15 16.5731 148.889Z" fill="#C9702F"/>
<path d="M128.539 149.284H138.193V154.917H128.539V149.284Z" fill="#C9702F"/>
<path d="M60.9404 149.284H72.2076V154.917H60.9404V149.284Z" fill="#C9702F"/>
<path d="M106.007 149.284H117.273V154.917H106.007V149.284Z" fill="#C9702F"/>
<path d="M38.4092 149.284H49.6749V154.917H38.4092V149.284Z" fill="#C9702F"/>
<path d="M83.4736 149.284H94.7401V154.917H83.4736V149.284Z" fill="#C9702F"/>
<path d="M115.66 104.219C110.994 104.219 107.21 108.001 107.21 112.668C107.21 117.333 110.994 121.119 115.66 121.119C120.327 121.119 124.11 117.333 124.11 112.668C124.11 108.001 120.327 104.219 115.66 104.219ZM115.66 115.485C114.106 115.485 112.844 114.223 112.844 112.668C112.844 111.112 114.106 109.851 115.66 109.851C117.216 109.851 118.478 111.112 118.478 112.668C118.478 114.223 117.216 115.485 115.66 115.485Z" fill="#C9702F"/>
</g>
<defs>
<clipPath id="clip0">
<rect width="169" height="169" fill="white"/>
</clipPath>
</defs>
</svg>
