<svg width="48" height="33" viewBox="0 0 48 33" fill="none" xmlns="http://www.w3.org/2000/svg">
<path d="M46.4472 5.28397C45.907 3.27582 44.3237 1.69282 42.3159 1.15208C38.6478 0.148438 23.975 0.148438 23.975 0.148438C23.975 0.148438 9.30283 0.148438 5.63471 1.11403C3.66547 1.65419 2.04356 3.27611 1.5034 5.28397C0.538086 8.95181 0.538086 16.5584 0.538086 16.5584C0.538086 16.5584 0.538086 24.2033 1.5034 27.8328C2.04413 29.8407 3.62685 31.4237 5.635 31.9644C9.34145 32.9684 23.9756 32.9684 23.9756 32.9684C23.9756 32.9684 38.6478 32.9684 42.3159 32.0028C44.324 31.4623 45.907 29.8793 46.4478 27.8715C47.4128 24.2033 47.4128 16.597 47.4128 16.597C47.4128 16.597 47.4514 8.95181 46.4472 5.28397ZM19.3035 23.5857V9.53116L31.5047 16.5584L19.3035 23.5857Z" fill="#C9702F"/>
</svg>
